<?xml version="1.0" encoding="UTF-8"?>
<svg width="135px" height="109px" viewBox="0 0 135 109" version="1.1" xmlns="http://www.w3.org/2000/svg" xmlns:xlink="http://www.w3.org/1999/xlink">
    <!-- Generator: Sketch 51.3 (57544) - http://www.bohemiancoding.com/sketch -->
    <title>Group</title>
    <desc>Created with Sketch.</desc>
    <defs></defs>
    <g id="Page-1" stroke="none" stroke-width="1" fill="none" fill-rule="evenodd">
        <g id="Group" transform="translate(1.000000, 1.000000)">
            <path d="M109,97.9 L109,106.1 L21.4,106.1 L21.4,97.2 C19.3,96 17.6,94.3 16.4,92.1 C15.4,90.2 14.9,88.2 14.9,86.2 C14.9,86 14.9,85.7 15,85.5 C14.1,85.3 13.1,85.1 12.2,84.8 C4.7,82.3 0.2,76.1 0.2,69 C0.2,67.1 0.5,65.2 1.2,63.2 C2.6,59 6.2,55.6 10.5,53.8 C13.7,52.5 17.6,52.3 21.4,52.9 L21.4,48.3 C21.4,20.5 39.2,0.1 68.4,0.1 C83.1,0.1 99.8,9.5 104.9,25.1 C106.2,29.2 106.2,33.5 105.4,37.5 C118.6,38.3 127.7,45 131.1,57.3 C133.2,64.8 132.1,72.9 127.9,80.1 C123.9,87.5 117.3,93.7 109,97.9 Z" id="Shape" stroke="#714C2C" stroke-width="2" fill="#714C2C" fill-rule="nonzero"></path>
            <path d="M84.7,46.4 C89.2,47.4 96.1,48.6 96.4,44.5 C98.5,49.9 94,53.1 88.8,50.1 C87.9,50.6 86.7,50.6 85.8,50 C84.6,49.2 84.1,47.7 84.7,46.4 Z M120.6,53.7 C121.9,54.9 123.2,56.9 123.9,59.1 C128.1,72 118.8,87 102.7,91.4 C84.9,96.3 67.5,89.1 65.4,75.7 C63.2,61.6 77.2,56.6 93.8,52.1 C108.4,48.2 114.9,48.2 120.6,53.7 Z M101.7,26.2 C103.4,31.2 103.1,36.5 101.4,41.1 C114.1,40.6 124.1,45.5 127.7,58.2 C132.1,73.7 120.4,90.5 101.3,95.7 C80.4,101.3 58.7,94.2 54.8,77.1 C52.3,66.7 57,58.9 65.1,53.2 C60.9,50.5 57.6,46.4 55.9,41.4 C51.9,29.3 59.7,17.4 72.3,13.2 C85,9.1 97.7,14.1 101.7,26.2 Z M15.1,63.8 C17.2,63 19.5,63.1 22.1,64.2 C24.7,65.3 28.2,68.2 29.9,71 C31.5,73.7 32.4,76.7 32.4,78.9 C31.2,76.1 29,73.7 26.1,72.1 L19.7,73.8 C18.4,74.1 17.1,74.1 15.8,73.7 C13.2,72.8 11.8,71 11.8,68.6 C11.9,66.7 12.9,64.7 15.1,63.8 Z M39.6,79.2 C39,71.9 34.9,62.4 24.9,57.9 C16.9,54.4 8,57.1 5.7,64.3 C3.4,71.2 6.7,77.9 13.8,80.2 C16.4,81.1 19.2,81.1 21.7,80.4 C19.6,83.1 19.1,86.7 20.7,89.8 C23,94.1 28.7,95.6 33.5,93.1 C38.1,90.8 40.2,86.5 39.6,79.2 Z M93.4,32.6 C94.5,36.8 93.6,40.7 91.6,41.5 C89.5,42.2 86.9,39.4 85.9,35.3 C84.8,31.1 85.7,27.2 87.7,26.4 C89.7,25.7 92.3,28.5 93.4,32.6 Z M78.2,36.6 C79.3,40.9 78.5,45 76.3,45.7 C74.2,46.4 71.5,43.6 70.4,39.3 C69.3,35 70.1,31 72.3,30.2 C74.5,29.5 77.1,32.3 78.2,36.6 Z" id="Shape" fill="#D3BB94"></path>
            <path d="M110.4,88.3 C108.1,89.6 105.5,90.7 102.7,91.5 C92.5,94.3 82.4,93.2 75.3,89.2 C86.2,77.4 105.9,76.3 109.8,86.6 C110.1,87.1 110.3,87.7 110.4,88.3 Z" id="Shape" fill="#C00418" fill-rule="nonzero"></path>
            <path d="M116.9,51 C114.9,56.8 108,56.3 105,52.2 C104.7,57.3 96.4,59.5 93.1,55.7 C92.7,60.7 84.2,63.3 80.6,59.7 C79.3,67.2 71.9,67.7 68.4,64.1 C73.2,58.2 83,55 93.9,52.1 C105.4,49 111.9,48.4 116.9,51 Z M70.1,36.9 L74.4,38 L72.4,30.3 C70.6,30.8 69.7,33.6 70.1,36.9 Z M85.4,32.9 L89.6,33.9 L87.7,26.3 C85.9,27 85.1,29.7 85.4,32.9 Z" id="Shape" fill="#FFFFFF"></path>
        </g>
    </g>
</svg>